<svg height="512" viewBox="0 0 512 512" width="512" xmlns="http://www.w3.org/2000/svg" xmlns:xlink="http://www.w3.org/1999/xlink"><clipPath id="a"><path d="m0 0h512v512h-512z"/></clipPath><g clip-path="url(#a)"><path d="m0 0h512v512h-512z" fill="#fff"/><g fill="#131c28"><path d="m483.828 329.7v28.321c-23.164 4.914-39.089 17.32-38.339 43.036.557 19.068 13.168 30.926 38.339 38.308v27.653c-12.535-3.328-24.359-6.21-38.533-9.973-15.549 15.754-32.856 33.345-50.229 50.871-11.424 11.525-22.078 24.031-34.651 34.141-13.788 11.087-14.772 24.363-11.86 41.068 16.228 0 32.335.363 48.4-.27 3.747-.147 7.623-3.311 10.99-5.717a132.411 132.411 0 0 1 62.709-23.918c3.96-.462 9.367-.6 13.705.809-67.353 15.885-93.343 65.9-103.2 128.764h-26.827c-.8-24.77 6.624-47.75 20.005-70.422h-55.288c0-16.627.581-31.839-.295-46.967a31.216 31.216 0 0 0 -6.33-16.979c-58.2-71-72.953-150.47-38.733-235.1 34.672-85.74 101.738-132.292 193.857-142.16 2.541-.273 5.115-.268 7.676-.331 2.11-.052 5.172 0 8.6 0v29.683c-30.442 0-47.124 3.68-68.7 11.8s-41.212 21.4-61.7 32.422q-.7 3.1-1.4 6.2c5.882 4.694 12.222 8.92 17.567 14.162 22.861 22.429 45.613 44.978 67.981 67.9 5.988 6.136 10.431 9.185 19.345 4.176 7.407-4.159 16.764-4.832 26.911-7.477zm-56.359 106.35c-18.331-33.738-12.68-63.313 12.9-90.056l-58.269-43.437c-2.586 6.32-5.385 11.138-6.533 16.323-4.566 20.625-16.875 34.8-33.831 46.966-21.069 15.115-25.874 15.436-1.2 33.324.534.387.551 1.487.81 2.253l-3.678-.554c-2.4 15.573-4.884 31.136-7.17 46.726-.871 5.937-.179 12.343-2.165 17.824-3.83 10.572-1.517 17.23 9.419 20.677a200.838 200.838 0 0 0 24.724 6.49c3.153.566 7.8-.591 10.068-2.75 18.496-17.648 36.585-35.72 54.925-53.79z" transform="translate(28.203 -170.809)"/><path d="m140.7 249.59 8.162-16.223 9.256 15.625 16.224 8.162-15.625 9.257-8.162 16.223-9.255-15.625-16.223-8.162z" transform="translate(72.924 -192.257)"/><path d="m197.792 287 2.367-4.7 2.684 4.531 4.7 2.366-4.531 2.684-2.367 4.7-2.684-4.531-4.7-2.367z" transform="translate(49.547 -209.031)"/><path d="m184.691 235.978 1.591-3.164 1.805 3.047 3.164 1.592-3.047 1.805-1.592 3.164-1.805-3.047-3.164-1.592z" transform="translate(53.53 -192.067)"/></g></g></svg>
