<svg width="0" height="0" display="none" xmlns="http://www.w3.org/2000/svg">
<symbol id="alien" viewBox="0 0 100 100"><g class="nc-icon-wrapper" stroke-linecap="square" stroke-width="4" fill="none" stroke="#180637" stroke-miterlimit="10"><path d="M4 20c0-9.9 8.909-18 20-18 10.727 0 20 8.1 20 18S31.454 46 24 46C16.454 46 4 29.9 4 20z"/><path data-color="color-2" d="M10 18s5.4-.2 8.8 3.2C21.4 23.8 20 30 20 30a13.533 13.533 0 01-6.9-3.1C10 23.8 10 18 10 18zM38 18s-5.4-.2-8.8 3.2C26.6 23.8 28 30 28 30a13.533 13.533 0 006.9-3.1C38 23.8 38 18 38 18z"/></g></symbol>
<symbol id="astronaut" viewBox="0 0 100 100"><g class="nc-icon-wrapper"><path fill="#B2B2B2" d="M6 34h1V24H6a5 5 0 100 10zM42 34h-1V24h1a5 5 0 110 10z"/><path fill="#E6E6E6" d="M24 2c10.493 0 19 8.507 19 19v15a8 8 0 01-8 8H13a8 8 0 01-8-8V21C5 10.507 13.507 2 24 2z"/><path fill="#A3A3A3" d="M24 2c-.338 0-.667.033-1 .05V11h2V2.05c-.333-.017-.662-.05-1-.05z"/><path fill="#E86C60" d="M8.5 43h31a1.5 1.5 0 110 3h-31a1.5 1.5 0 110-3z"/><path fill="#5B5B5B" d="M24 8c8.837 0 16 7.163 16 16v10a6 6 0 01-6 6H14a6 6 0 01-6-6V24c0-8.837 7.163-16 16-16z"/><ellipse transform="rotate(-24.929 17.158 17.201)" fill="#727272" cx="17.158" cy="17.201" rx="4" ry="3"/></g></symbol>
<symbol id="monster" viewBox="0 0 100 100"><g class="nc-icon-wrapper"><path d="M24 46a22 22 0 1122-22 22.025 22.025 0 01-22 22z" fill="#a56edc"/><path d="M24 31a11 11 0 1111-11 11.013 11.013 0 01-11 11z" fill="#fff"/><path d="M24 24a4 4 0 114-4 4 4 0 01-4 4zM16 35h16a7 7 0 01-7 7h-2a7 7 0 01-7-7z" fill="#444"/><path fill="#fff" d="M18 35l2 3 2-3h-4zM26 35l2 3 2-3h-4z"/></g></symbol>
<symbol id="moon" viewBox="0 0 100 100"><path d="M43 28.3c-1.7.5-3.4.7-5 .7-10.5 0-19-8.5-19-19 0-1.6.2-3.3.7-5 .1-.3 0-.7-.3-1-.3-.3-.6-.4-1-.3C9.4 6.2 3 14.6 3 24c0 11.6 9.4 21 21 21 9.4 0 17.8-6.4 20.2-15.5.1-.3 0-.7-.3-1-.2-.2-.5-.3-.9-.2z" fill="#180637"/></symbol>
<symbol id="planet" viewBox="0 0 100 100"><g class="nc-icon-wrapper" stroke-linecap="square" stroke-width="4" fill="#180637" stroke="#180637"><circle fill="none" stroke-miterlimit="10" cx="31" cy="33" r="28"/><circle fill="none" stroke-miterlimit="10" cx="15" cy="44" r="2"/><circle fill="none" stroke-miterlimit="10" cx="43" cy="36" r="2"/><circle data-stroke="none" cx="15" cy="44" r="2" stroke="none"/><circle data-stroke="none" cx="43" cy="36" r="2" stroke="none"/><circle fill="none" stroke-miterlimit="10" cx="32.5" cy="20.5" r="5.5"/><path data-color="color-2" fill="none" stroke-miterlimit="10" d="M60 50c2.261 5.036 2.699 8.958.828 10.828-4.567 4.567-21.164-4.62-37.128-20.532l.003.003C7.792 24.335-1.395 7.738 3.172 3.172 5.041 1.302 8.967 1.741 14 4"/></g></symbol>
<symbol id="rocket" viewBox="0 0 100 100"><g class="nc-icon-wrapper" fill="#180637"><path fill="none" d="M0 0h24v24H0z"/><path d="M8.498 20h7.004A6.523 6.523 0 0112 23.502 6.523 6.523 0 018.498 20zM18 14.805l2 2.268V19H4v-1.927l2-2.268V9c0-3.483 2.504-6.447 6-7.545C15.496 2.553 18 5.517 18 9v5.805zM12 11a2 2 0 100-4 2 2 0 000 4z"/></g></symbol>
<symbol id="satellite" viewBox="0 0 100 100"><g class="nc-icon-wrapper" stroke-linecap="square" stroke-width="4" fill="none" stroke="#180637" stroke-miterlimit="10"><path d="M16 26l6 6 17.755-17.755a4.242 4.242 0 000-6h0a4.242 4.242 0 00-6 0z"/><path data-cap="butt" stroke-linecap="butt" d="M20 22V12l-9-9-6 6 9 9M30 24v10l9 9 6-6-9-9"/><path d="M16 46A14 14 0 012 32M16 40a8 8 0 01-8-8" data-color="color-2"/></g></symbol>
</svg>