<svg xmlns="http://www.w3.org/2000/svg" viewBox="0 0 48 48" width="48" height="48"><title>alien 29</title><g class="nc-icon-wrapper" stroke-linecap="square" stroke-linejoin="miter" stroke-width="4" fill="#180637" stroke="#180637"><path d="M4,20C4,10.1,12.909,2,24,2c10.727,0,20,8.1,20,18S31.454,46,24,46C16.454,46,4,29.9,4,20Z" fill="none" stroke="#180637" stroke-miterlimit="10"/> <path data-color="color-2" d="M10,18s5.4-.2,8.8,3.2C21.4,23.8,20,30,20,30a13.533,13.533,0,0,1-6.9-3.1C10,23.8,10,18,10,18Z" fill="none" stroke-miterlimit="10"/> <path data-color="color-2" d="M38,18s-5.4-.2-8.8,3.2C26.6,23.8,28,30,28,30a13.533,13.533,0,0,0,6.9-3.1C38,23.8,38,18,38,18Z" fill="none" stroke-miterlimit="10"/></g></svg>
