<svg xmlns="http://www.w3.org/2000/svg" width="48" height="48"><g class="nc-icon-wrapper"><path fill="#B2B2B2" d="M6 34h1V24H6a5 5 0 100 10zm36 0h-1V24h1a5 5 0 110 10z"/><path fill="#E6E6E6" d="M24 2c10.493 0 19 8.507 19 19v15a8 8 0 01-8 8H13a8 8 0 01-8-8V21C5 10.507 13.507 2 24 2z"/><path fill="#A3A3A3" d="M24 2c-.338 0-.667.033-1 .05V11h2V2.05c-.333-.017-.662-.05-1-.05z"/><path fill="#E86C60" d="M8.5 43h31a1.5 1.5 0 110 3h-31a1.5 1.5 0 110-3z"/><path fill="#5B5B5B" d="M24 8c8.837 0 16 7.163 16 16v10a6 6 0 01-6 6H14a6 6 0 01-6-6V24c0-8.837 7.163-16 16-16z"/><ellipse transform="rotate(-24.929 17.158 17.201)" fill="#727272" cx="17.158" cy="17.201" rx="4" ry="3"/></g></svg>