<svg xmlns="http://www.w3.org/2000/svg" viewBox="0 0 48 48" width="48" height="48"><title>astronaut</title><g class="nc-icon-wrapper"><path fill="#B2B2B2" d="M6,34h1V24H6c-2.76142,0-5,2.23857-5,4.99999v0.00001C1,31.76143,3.23857,34,6,34z"/> <path fill="#B2B2B2" d="M42,34h-1V24h1c2.76142,0,5,2.23857,5,4.99999v0.00001C47,31.76143,44.76143,34,42,34z"/> <path fill="#E6E6E6" d="M23.99998,2h0.00004C34.49342,2,43,10.50658,43,20.99998V36c0,4.41828-3.58172,8-8,8H13 c-4.41828,0-8-3.58172-8-8V20.99998C5,10.50658,13.50658,2,23.99998,2z"/> <path fill="#A3A3A3" d="M24,2c-0.33759,0-0.66675,0.03308-1,0.05048V11h2V2.05048C24.66675,2.03308,24.33759,2,24,2z"/> <path fill="#E86C60" d="M8.5,43h31c0.82843,0,1.5,0.67157,1.5,1.5l0,0c0,0.82843-0.67157,1.5-1.5,1.5h-31 C7.67157,46,7,45.32843,7,44.5l0,0C7,43.67157,7.67157,43,8.5,43z"/> <path fill="#5B5B5B" d="M23.99998,8h0.00003C32.83656,8,40,15.16344,40,23.99998V34c0,3.31371-2.68629,6-6,6H14 c-3.31371,0-6-2.68629-6-6V23.99998C8,15.16344,15.16344,8,23.99998,8z"/> <ellipse transform="matrix(0.90683 -0.4215 0.4215 0.90683 -5.65165 8.83462)" fill="#727272" cx="17.15755" cy="17.20101" rx="4" ry="3"/></g></svg>