<svg xmlns="http://www.w3.org/2000/svg" viewBox="0 0 48 48" width="48" height="48"><title>satellite</title><g class="nc-icon-wrapper" stroke-linecap="square" stroke-linejoin="miter" stroke-width="4" fill="#180637" stroke="#180637"><path d="M16,26l6,6L39.755,14.245a4.242,4.242,0,0,0,0-6h0a4.242,4.242,0,0,0-6,0Z" fill="none" stroke="#180637" stroke-miterlimit="10"/><polyline points="20 22 20 12 11 3 5 9 14 18" fill="none" stroke="#180637" stroke-miterlimit="10" data-cap="butt" stroke-linecap="butt"/><polyline points="30 24 30 34 39 43 45 37 36 28" fill="none" stroke="#180637" stroke-miterlimit="10" data-cap="butt" stroke-linecap="butt"/><path d="M16,46A14,14,0,0,1,2,32" fill="none" stroke-miterlimit="10" data-color="color-2"/><path d="M16,40a8,8,0,0,1-8-8" fill="none" stroke-miterlimit="10" data-color="color-2"/></g></svg>