<svg xmlns="http://www.w3.org/2000/svg" viewBox="0 0 48 48" width="48" height="48"><title>monster</title><g class="nc-icon-wrapper"><path d="M24,46A22,22,0,1,1,46,24,22.025,22.025,0,0,1,24,46Z" fill="#a56edc"/> <path d="M24,31A11,11,0,1,1,35,20,11.013,11.013,0,0,1,24,31Z" fill="#fff"/> <path d="M24,24a4,4,0,1,1,4-4A4,4,0,0,1,24,24Z" fill="#444"/> <path d="M16,35H32a0,0,0,0,1,0,0v0a7,7,0,0,1-7,7H23a7,7,0,0,1-7-7v0A0,0,0,0,1,16,35Z" fill="#444"/> <polygon points="18 35 20 38 22 35 18 35" fill="#fff"/> <polygon points="26 35 28 38 30 35 26 35" fill="#fff"/></g></svg>